<?xml version="1.0"?>
<svg xmlns="http://www.w3.org/2000/svg" width="107" height="32" viewBox="0 0 107 32" fill="none">
<g clip-path="url(#clip0_7_52)">
<rect width="107" height="32" rx="6" fill="white"/>

<path d="M34.5 0V32H36.5V0H34.5Z" fill="#24292F" fill-opacity="0.102" mask="url(#path-3-inside-1_7_52)"/>
<g clip-path="url(#clip1_7_52)">
<path fill-rule="evenodd" clip-rule="evenodd" d="M17.9762 8C13.5656 8 10 11.6667 10 16.2028C10 19.8288 12.2846 22.8982 15.4539 23.9845C15.8501 24.0662 15.9953 23.808 15.9953 23.5908C15.9953 23.4007 15.9822 22.7488 15.9822 22.0697C13.7634 22.5587 13.3014 21.0918 13.3014 21.0918C12.9448 20.1412 12.4165 19.8968 12.4165 19.8968C11.6903 19.3943 12.4694 19.3943 12.4694 19.3943C13.2749 19.4487 13.6976 20.2363 13.6976 20.2363C14.4106 21.4857 15.5595 21.1327 16.0217 20.9153C16.0877 20.3857 16.2991 20.019 16.5236 19.8153C14.754 19.6252 12.8921 18.919 12.8921 15.7682C12.8921 14.8718 13.2088 14.1385 13.7107 13.5682C13.6315 13.3645 13.3541 12.5223 13.79 11.3952C13.79 11.3952 14.4635 11.1778 15.982 12.2372C16.6322 12.0576 17.3027 11.9663 17.9762 11.9655C18.6496 11.9655 19.3362 12.0607 19.9701 12.2372C21.4888 11.1778 22.1623 11.3952 22.1623 11.3952C22.5982 12.5223 22.3207 13.3645 22.2415 13.5682C22.7566 14.1385 23.0602 14.8718 23.0602 15.7682C23.0602 18.919 21.1984 19.6115 19.4155 19.8153C19.7061 20.0733 19.9569 20.5622 19.9569 21.3363C19.9569 22.4363 19.9438 23.3192 19.9438 23.5907C19.9438 23.808 20.0891 24.0662 20.4852 23.9847C23.6545 22.898 25.9391 19.8288 25.9391 16.2028C25.9522 11.6667 22.3736 8 17.9762 8Z" fill="#24292F"/>
</g>
<path d="M54.8662 14.6592C54.7718 14.363 54.6449 14.0977 54.4854 13.8633C54.3291 13.6257 54.1419 13.4238 53.9238 13.2578C53.7057 13.0885 53.4567 12.96 53.1768 12.8721C52.9001 12.7842 52.5957 12.7402 52.2637 12.7402C51.7005 12.7402 51.1927 12.8851 50.7402 13.1748C50.2878 13.4645 49.9297 13.8893 49.666 14.4492C49.4056 15.0059 49.2754 15.6878 49.2754 16.4951C49.2754 17.3057 49.4072 17.9909 49.6709 18.5508C49.9346 19.1107 50.2959 19.5355 50.7549 19.8252C51.2139 20.1149 51.7363 20.2598 52.3223 20.2598C52.8659 20.2598 53.3395 20.1491 53.7432 19.9277C54.1501 19.7064 54.4642 19.3939 54.6855 18.9902C54.9102 18.5833 55.0225 18.1048 55.0225 17.5547L55.4131 17.6279H52.5518V16.3828H56.4824V17.5205C56.4824 18.3604 56.3034 19.0895 55.9453 19.708C55.5905 20.3232 55.099 20.7985 54.4707 21.1338C53.8457 21.4691 53.1296 21.6367 52.3223 21.6367C51.4173 21.6367 50.623 21.4284 49.9395 21.0117C49.2591 20.5951 48.7285 20.0042 48.3477 19.2393C47.9668 18.471 47.7764 17.5596 47.7764 16.5049C47.7764 15.7074 47.887 14.9912 48.1084 14.3564C48.3298 13.7217 48.6406 13.1829 49.041 12.7402C49.4447 12.2943 49.9183 11.9541 50.4619 11.7197C51.0088 11.4821 51.6061 11.3633 52.2539 11.3633C52.7943 11.3633 53.2972 11.443 53.7627 11.6025C54.2314 11.762 54.6481 11.9883 55.0127 12.2812C55.3805 12.5742 55.6849 12.9225 55.9258 13.3262C56.1667 13.7266 56.3294 14.1709 56.4141 14.6592H54.8662ZM58.888 21.5V14H60.3479V21.5H58.888ZM59.6253 12.8428C59.3714 12.8428 59.1533 12.7581 58.971 12.5889C58.792 12.4163 58.7024 12.2113 58.7024 11.9736C58.7024 11.7327 58.792 11.5277 58.971 11.3584C59.1533 11.1859 59.3714 11.0996 59.6253 11.0996C59.8792 11.0996 60.0957 11.1859 60.2747 11.3584C60.457 11.5277 60.5481 11.7327 60.5481 11.9736C60.5481 12.2113 60.457 12.4163 60.2747 12.5889C60.0957 12.7581 59.8792 12.8428 59.6253 12.8428ZM65.9505 14V15.1719H61.8539V14H65.9505ZM62.9525 12.2031H64.4125V19.2979C64.4125 19.5811 64.4548 19.7943 64.5394 19.9375C64.624 20.0775 64.7331 20.1735 64.8666 20.2256C65.0033 20.2744 65.1514 20.2988 65.3109 20.2988C65.4281 20.2988 65.5306 20.2907 65.6185 20.2744C65.7064 20.2581 65.7748 20.2451 65.8236 20.2354L66.0873 21.4414C66.0026 21.474 65.8822 21.5065 65.7259 21.5391C65.5697 21.5749 65.3744 21.5944 65.14 21.5977C64.7559 21.6042 64.3978 21.5358 64.0658 21.3926C63.7337 21.2493 63.4652 21.028 63.2601 20.7285C63.055 20.429 62.9525 20.0531 62.9525 19.6006V12.2031ZM67.9813 21.5V11.5H69.4901V15.8457H74.4755V11.5H75.9892V21.5H74.4755V17.1396H69.4901V21.5H67.9813ZM82.9577 18.3896V14H84.4226V21.5H82.987V20.2012H82.9089C82.7364 20.6016 82.4597 20.9352 82.0788 21.2021C81.7012 21.4658 81.2308 21.5977 80.6677 21.5977C80.1859 21.5977 79.7595 21.4919 79.3884 21.2803C79.0205 21.0654 78.7308 20.748 78.5192 20.3281C78.3109 19.9082 78.2067 19.389 78.2067 18.7705V14H79.6667V18.5947C79.6667 19.1058 79.8083 19.5127 80.0915 19.8154C80.3747 20.1182 80.7425 20.2695 81.195 20.2695C81.4685 20.2695 81.7403 20.2012 82.0104 20.0645C82.2839 19.9277 82.5101 19.721 82.6892 19.4443C82.8715 19.1676 82.961 18.8161 82.9577 18.3896ZM86.6389 21.5V11.5H88.0989V15.2158H88.1868C88.2714 15.0596 88.3935 14.8789 88.553 14.6738C88.7125 14.4687 88.9338 14.2897 89.217 14.1367C89.5002 13.9805 89.8746 13.9023 90.3401 13.9023C90.9456 13.9023 91.4859 14.0553 91.9612 14.3613C92.4364 14.6673 92.8092 15.1084 93.0793 15.6846C93.3528 16.2607 93.4895 16.9541 93.4895 17.7646C93.4895 18.5752 93.3544 19.2702 93.0842 19.8496C92.814 20.4258 92.443 20.8701 91.9709 21.1826C91.4989 21.4919 90.9602 21.6465 90.3547 21.6465C89.899 21.6465 89.5263 21.57 89.2366 21.417C88.9501 21.264 88.7255 21.085 88.5627 20.8799C88.4 20.6748 88.2747 20.4925 88.1868 20.333H88.0647V21.5H86.6389ZM88.0696 17.75C88.0696 18.2773 88.1461 18.7396 88.2991 19.1367C88.4521 19.5339 88.6734 19.8447 88.9631 20.0693C89.2528 20.2907 89.6077 20.4014 90.0276 20.4014C90.4638 20.4014 90.8284 20.2858 91.1213 20.0547C91.4143 19.8203 91.6357 19.5029 91.7854 19.1025C91.9384 18.7021 92.0149 18.2513 92.0149 17.75C92.0149 17.2552 91.94 16.8109 91.7903 16.417C91.6438 16.0231 91.4224 15.7122 91.1262 15.4844C90.8333 15.2565 90.467 15.1426 90.0276 15.1426C89.6044 15.1426 89.2463 15.2516 88.9534 15.4697C88.6637 15.6878 88.4439 15.9922 88.2942 16.3828C88.1444 16.7734 88.0696 17.2292 88.0696 17.75Z" fill="#24292F"/>
</g>
<rect x="0.5" y="0.5" width="106" height="31" rx="5.5" stroke="#24292F" stroke-opacity="0.102"/>
<defs>
<clipPath id="clip0_7_52">
<rect width="107" height="32" rx="6" fill="white"/>
</clipPath>
<clipPath id="clip1_7_52">
<rect width="16" height="16" fill="white" transform="translate(10 8)"/>
</clipPath>
</defs>
</svg>
